# xmcd
#
# Track frame offsets:
#	150
#	14862
#	32928
#	45240
#	58232
#	73861
#	87215
#	100381
#	121176
#	133345
#	147402
#
# Disc length: 2114 seconds
#
# Revision: 0
# Processed by: cddbd v1.5.2PL0 Copyright (c) Steve Scherf et al.
# Submitted via: EasyCDDAExtractor 12.0.1.1
#
DISCID=a708400b
DTITLE=Maria Hänninen - Not only but also
DYEAR=2009
DGENRE=
TTITLE0=Wild about that thing
TTITLE1=Zaida blue
TTITLE2=Soulful dress
TTITLE3=Don't blame me
TTITLE4=I had a talk with my man
TTITLE5=Handsome
TTITLE6=Beg me to say
TTITLE7=Believe it
TTITLE8=Two blue devils
TTITLE9=Well allright, okay
TTITLE10=Going home to my man
EXTD=
EXTT0=
EXTT1=
EXTT2=
EXTT3=
EXTT4=
EXTT5=
EXTT6=
EXTT7=
EXTT8=
EXTT9=
EXTT10=
PLAYORDER=
